<svg id="_02_Product_Backup_L" data-name="02_Product_Backup_L" xmlns="http://www.w3.org/2000/svg" width="32" height="32" viewBox="0 0 32 32">
  <defs>
    <style>
      .cls-1, .cls-2, .cls-3 {
        fill: #364fc7;
      }

      .cls-1 {
        opacity: 0;
      }

      .cls-3 {
        opacity: 0.45;
      }
    </style>
  </defs>
  <rect id="xx" class="cls-1" width="31.995" height="31.995" transform="translate(0 0)"/>
  <g id="그룹_114595" data-name="그룹 114595" transform="translate(0 0)">
    <path id="빼기_52" data-name="빼기 52" class="cls-2" d="M29.535,17.336H2.461A2.464,2.464,0,0,1,0,14.875V0L10.312,0A2.27,2.27,0,0,1,12,.67L15.824,4.5a.613.613,0,0,0,.422.167H32l0,10.205A2.464,2.464,0,0,1,29.535,17.336ZM9.666,10a1,1,0,1,0,0,2h12a1,1,0,1,0,0-2Z" transform="translate(0 14.663)"/>
    <path id="합치기_268" data-name="합치기 268" class="cls-2" d="M8.587,14.2.2,5.8A.667.667,0,0,1,.668,4.667H5.058V0h8V4.667h4.392A.667.667,0,0,1,17.92,5.8L9.53,14.2a.666.666,0,0,1-.943,0Z" transform="translate(4.275 0)"/>
    <path id="합치기_269" data-name="합치기 269" class="cls-3" d="M4.627,7.763.1,3.235a.333.333,0,0,1,.235-.569h2.53V0h4V2.666H9.392a.333.333,0,0,1,.236.569L5.1,7.763a.334.334,0,0,1-.472,0Z" transform="translate(21.136 9.333)"/>
  </g>
</svg>
